# xmcd CD database file
#
# Track frame offsets:
#	150
#	13925
#	34325
#	57800
#	85175
#	103625
#	128200
#	151225
#	175325
#
# Disc length: 2688 seconds
#
# Revision: 0
# Processed by: cddbd v1.5.1PL0 Copyright (c) Steve Scherf et al.
# Submitted via: CDex 1.51
#
DISCID=6e0a7e09
DTITLE=Gentle Waves - Hymns By The Sea
DYEAR=1995
DGENRE=New Age
TTITLE0=Amazing Grace
TTITLE1=Blest Be The Tie That Binds
TTITLE2=All Hail The Power of Jesus' Name
TTITLE3=Ave Maria
TTITLE4=I Love To Tell The Story
TTITLE5=For The Beauty Of The Earth
TTITLE6=All Things Bright And Beautiful
TTITLE7=Bringing In The Sheaves
TTITLE8=Now The Day Is Over
EXTD=YEAR: 1995
EXTT0=
EXTT1=
EXTT2=
EXTT3=
EXTT4=
EXTT5=
EXTT6=
EXTT7=
EXTT8=
PLAYORDER=
